<svg width="1060" height="49" viewBox="0 0 1060 49" fill="none" xmlns="http://www.w3.org/2000/svg">
<path d="M13.59 26.71H5.91V35.5H1.8V14.5H5.91V23.05H13.59V14.5H17.7V35.5H13.59V26.71ZM31.691 30.85H25.241L23.651 35.5H19.541L27.101 14.35H30.131L37.691 35.5H33.371L31.691 30.85ZM26.291 27.55H30.791L29.231 22.87L28.601 19.57H28.451L27.821 22.9L26.291 27.55ZM51.7451 23.86L51.9851 21.13H51.8351L50.4251 23.95L42.5951 35.5H39.5051V14.5H43.6151V25.93L43.3151 28.75H43.4951L44.9651 25.84L52.7951 14.5H55.8551V35.5H51.7451V23.86ZM45.8951 9.28C45.9751 9.92 46.2051 10.38 46.5851 10.66C46.9851 10.94 47.4951 11.08 48.1151 11.08C49.4551 11.08 50.1951 10.49 50.3351 9.31L53.6651 9.82C53.4451 11.08 52.8651 12 51.9251 12.58C51.0051 13.16 49.7251 13.45 48.0851 13.45C47.2651 13.45 46.5151 13.39 45.8351 13.27C45.1551 13.15 44.5551 12.96 44.0351 12.7C43.5351 12.42 43.1151 12.05 42.7751 11.59C42.4551 11.13 42.2551 10.56 42.1751 9.88L45.8951 9.28ZM77.9055 39.25H74.9955L74.5455 35.5H61.0455L60.5955 39.25H57.6855V31.84H59.9055C60.0455 31.62 60.2755 31.13 60.5955 30.37C60.9155 29.61 61.2355 28.54 61.5555 27.16C61.8755 25.76 62.1455 24.02 62.3655 21.94C62.5855 19.84 62.6855 17.36 62.6655 14.5H75.2355V31.84H77.9055V39.25ZM71.1255 31.84V18.16H66.4755C66.3555 21.72 66.0655 24.64 65.6055 26.92C65.1655 29.18 64.7155 30.82 64.2555 31.84H71.1255ZM80.2277 14.5H92.6777V18.16H84.3377V23.05H91.9277V26.71H84.3377V31.84H92.8277V35.5H80.2277V14.5ZM107.692 26.71H100.012V35.5H95.9016V14.5H100.012V23.05H107.692V14.5H111.802V35.5H107.692V26.71ZM114.783 25C114.783 21.5 115.553 18.81 117.093 16.93C118.633 15.03 120.833 14.08 123.693 14.08C125.193 14.08 126.503 14.34 127.623 14.86C128.743 15.38 129.673 16.12 130.413 17.08C131.153 18.04 131.703 19.19 132.063 20.53C132.423 21.87 132.603 23.36 132.603 25C132.603 28.5 131.823 31.2 130.263 33.1C128.723 34.98 126.533 35.92 123.693 35.92C122.173 35.92 120.853 35.66 119.733 35.14C118.613 34.62 117.683 33.88 116.943 32.92C116.223 31.96 115.683 30.81 115.323 29.47C114.963 28.13 114.783 26.64 114.783 25ZM119.103 25C119.103 26.06 119.193 27.04 119.373 27.94C119.553 28.82 119.823 29.58 120.183 30.22C120.563 30.86 121.043 31.36 121.623 31.72C122.203 32.08 122.893 32.26 123.693 32.26C125.153 32.26 126.283 31.69 127.083 30.55C127.883 29.41 128.283 27.56 128.283 25C128.283 23.98 128.193 23.03 128.013 22.15C127.853 21.27 127.593 20.5 127.233 19.84C126.873 19.18 126.403 18.67 125.823 18.31C125.243 17.93 124.533 17.74 123.693 17.74C122.233 17.74 121.103 18.33 120.303 19.51C119.503 20.67 119.103 22.5 119.103 25ZM154.957 18.16H146.857V35.5H142.747V14.5H154.957V18.16ZM155.183 25C155.183 21.5 155.953 18.81 157.493 16.93C159.033 15.03 161.233 14.08 164.093 14.08C165.593 14.08 166.903 14.34 168.023 14.86C169.143 15.38 170.073 16.12 170.813 17.08C171.553 18.04 172.103 19.19 172.463 20.53C172.823 21.87 173.003 23.36 173.003 25C173.003 28.5 172.223 31.2 170.663 33.1C169.123 34.98 166.933 35.92 164.093 35.92C162.573 35.92 161.253 35.66 160.133 35.14C159.013 34.62 158.083 33.88 157.343 32.92C156.623 31.96 156.083 30.81 155.723 29.47C155.363 28.13 155.183 26.64 155.183 25ZM159.503 25C159.503 26.06 159.593 27.04 159.773 27.94C159.953 28.82 160.223 29.58 160.583 30.22C160.963 30.86 161.443 31.36 162.023 31.72C162.603 32.08 163.293 32.26 164.093 32.26C165.553 32.26 166.683 31.69 167.483 30.55C168.283 29.41 168.683 27.56 168.683 25C168.683 23.98 168.593 23.03 168.413 22.15C168.253 21.27 167.993 20.5 167.633 19.84C167.273 19.18 166.803 18.67 166.223 18.31C165.643 17.93 164.933 17.74 164.093 17.74C162.633 17.74 161.503 18.33 160.703 19.51C159.903 20.67 159.503 22.5 159.503 25ZM190.161 34.63C189.521 35.09 188.701 35.42 187.701 35.62C186.721 35.82 185.711 35.92 184.671 35.92C183.411 35.92 182.211 35.73 181.071 35.35C179.951 34.95 178.961 34.32 178.101 33.46C177.241 32.58 176.551 31.45 176.031 30.07C175.531 28.67 175.281 26.98 175.281 25C175.281 22.94 175.561 21.22 176.121 19.84C176.701 18.44 177.441 17.32 178.341 16.48C179.261 15.62 180.281 15.01 181.401 14.65C182.521 14.27 183.641 14.08 184.761 14.08C185.961 14.08 186.971 14.16 187.791 14.32C188.631 14.48 189.321 14.67 189.861 14.89L189.051 18.37C188.591 18.15 188.041 17.99 187.401 17.89C186.781 17.79 186.021 17.74 185.121 17.74C183.461 17.74 182.121 18.33 181.101 19.51C180.101 20.69 179.601 22.52 179.601 25C179.601 26.08 179.721 27.07 179.961 27.97C180.201 28.85 180.561 29.61 181.041 30.25C181.541 30.87 182.151 31.36 182.871 31.72C183.611 32.06 184.461 32.23 185.421 32.23C186.321 32.23 187.081 32.14 187.701 31.96C188.321 31.78 188.861 31.55 189.321 31.27L190.161 34.63ZM207.433 18.16H201.313V35.5H197.203V18.16H191.053V14.5H207.433V18.16ZM221.813 23.86L222.053 21.13H221.903L220.493 23.95L212.663 35.5H209.573V14.5H213.683V25.93L213.383 28.75H213.563L215.033 25.84L222.863 14.5H225.923V35.5H221.813V23.86ZM241.344 26.71H233.664V35.5H229.554V14.5H233.664V23.05H241.344V14.5H245.454V35.5H241.344V26.71ZM261.335 23.86L261.575 21.13H261.425L260.015 23.95L252.185 35.5H249.095V14.5H253.205V25.93L252.905 28.75H253.085L254.555 25.84L262.385 14.5H265.445V35.5H261.335V23.86ZM287.225 39.25H284.315L283.865 35.5H269.075V14.5H273.185V31.84H280.415V14.5H284.525V31.84H287.225V39.25ZM290.515 22.66C290.515 21.96 290.735 21.41 291.175 21.01C291.615 20.59 292.195 20.38 292.915 20.38C293.675 20.38 294.275 20.59 294.715 21.01C295.155 21.41 295.375 21.96 295.375 22.66C295.375 23.36 295.155 23.92 294.715 24.34C294.275 24.76 293.675 24.97 292.915 24.97C292.195 24.97 291.615 24.76 291.175 24.34C290.735 23.92 290.515 23.36 290.515 22.66ZM290.515 33.52C290.515 32.82 290.735 32.27 291.175 31.87C291.615 31.45 292.195 31.24 292.915 31.24C293.675 31.24 294.275 31.45 294.715 31.87C295.155 32.27 295.375 32.82 295.375 33.52C295.375 34.22 295.155 34.78 294.715 35.2C294.275 35.62 293.675 35.83 292.915 35.83C292.195 35.83 291.615 35.62 291.175 35.2C290.735 34.78 290.515 34.22 290.515 33.52ZM310.599 32.62C311.839 32.62 312.779 32.29 313.419 31.63C314.079 30.97 314.409 30.17 314.409 29.23C314.409 28.09 314.069 27.25 313.389 26.71C312.709 26.17 311.639 25.9 310.179 25.9H308.019V23.83L311.649 18.88L313.359 17.53L310.989 17.8H305.949V14.5H317.409V16.63L313.179 22.3L311.859 23.11V23.26L313.119 23.08C313.819 23.14 314.479 23.3 315.099 23.56C315.739 23.82 316.289 24.2 316.749 24.7C317.229 25.18 317.609 25.78 317.889 26.5C318.169 27.22 318.309 28.05 318.309 28.99C318.309 30.17 318.109 31.19 317.709 32.05C317.329 32.91 316.789 33.63 316.089 34.21C315.409 34.79 314.609 35.22 313.689 35.5C312.769 35.78 311.779 35.92 310.719 35.92C309.839 35.92 308.929 35.84 307.989 35.68C307.049 35.52 306.289 35.29 305.709 34.99L306.759 31.75C307.279 32.01 307.849 32.22 308.469 32.38C309.109 32.54 309.819 32.62 310.599 32.62ZM322.221 30.37C322.221 29.67 322.311 29.05 322.491 28.51C322.671 27.95 322.921 27.45 323.241 27.01C323.581 26.55 323.971 26.14 324.411 25.78C324.871 25.42 325.361 25.09 325.881 24.79C324.901 24.17 324.131 23.46 323.571 22.66C323.011 21.84 322.731 20.83 322.731 19.63C322.731 18.85 322.871 18.12 323.151 17.44C323.451 16.76 323.871 16.17 324.411 15.67C324.971 15.17 325.641 14.78 326.421 14.5C327.201 14.22 328.081 14.08 329.061 14.08C329.961 14.08 330.781 14.2 331.521 14.44C332.261 14.68 332.891 15.02 333.411 15.46C333.951 15.9 334.361 16.44 334.641 17.08C334.941 17.7 335.091 18.39 335.091 19.15C335.091 20.33 334.821 21.33 334.281 22.15C333.761 22.97 332.991 23.72 331.971 24.4C333.171 25.1 334.071 25.87 334.671 26.71C335.291 27.55 335.601 28.63 335.601 29.95C335.601 30.85 335.431 31.67 335.091 32.41C334.771 33.13 334.311 33.75 333.711 34.27C333.111 34.79 332.391 35.2 331.551 35.5C330.711 35.78 329.791 35.92 328.791 35.92C327.791 35.92 326.881 35.78 326.061 35.5C325.261 35.24 324.571 34.87 323.991 34.39C323.431 33.91 322.991 33.33 322.671 32.65C322.371 31.97 322.221 31.21 322.221 30.37ZM331.881 29.98C331.881 29.52 331.771 29.1 331.551 28.72C331.331 28.34 331.041 28 330.681 27.7C330.341 27.38 329.951 27.09 329.511 26.83C329.091 26.57 328.661 26.32 328.221 26.08C327.281 26.62 326.631 27.21 326.271 27.85C325.931 28.47 325.761 29.09 325.761 29.71C325.761 30.51 326.031 31.2 326.571 31.78C327.131 32.34 327.901 32.62 328.881 32.62C329.781 32.62 330.501 32.4 331.041 31.96C331.601 31.52 331.881 30.86 331.881 29.98ZM326.451 19.69C326.451 20.17 326.541 20.59 326.721 20.95C326.901 21.31 327.141 21.63 327.441 21.91C327.761 22.17 328.111 22.42 328.491 22.66C328.891 22.88 329.301 23.09 329.721 23.29C330.921 22.27 331.521 21.15 331.521 19.93C331.521 19.09 331.271 18.46 330.771 18.04C330.291 17.6 329.701 17.38 329.001 17.38C328.121 17.38 327.471 17.61 327.051 18.07C326.651 18.53 326.451 19.07 326.451 19.69Z" fill="black"/>
<rect x="539" y="1" width="290" height="47" rx="3" stroke="#E5E5E5" stroke-width="2"/>
<path d="M567.594 30.478C567.234 30.754 566.778 30.946 566.226 31.054C565.674 31.162 565.086 31.216 564.462 31.216C563.706 31.216 562.998 31.09 562.338 30.838C561.678 30.574 561.102 30.178 560.61 29.65C560.118 29.122 559.728 28.45 559.44 27.634C559.152 26.806 559.008 25.828 559.008 24.7C559.008 23.524 559.164 22.528 559.476 21.712C559.8 20.884 560.22 20.212 560.736 19.696C561.264 19.168 561.852 18.784 562.5 18.544C563.148 18.304 563.808 18.184 564.48 18.184C565.2 18.184 565.788 18.226 566.244 18.31C566.7 18.382 567.09 18.484 567.414 18.616L567.054 19.93C566.478 19.654 565.656 19.516 564.588 19.516C564.096 19.516 563.61 19.606 563.13 19.786C562.65 19.966 562.218 20.26 561.834 20.668C561.462 21.076 561.162 21.61 560.934 22.27C560.706 22.93 560.592 23.74 560.592 24.7C560.592 25.564 560.7 26.32 560.916 26.968C561.132 27.616 561.426 28.156 561.798 28.588C562.182 29.02 562.626 29.344 563.13 29.56C563.646 29.776 564.204 29.884 564.804 29.884C565.344 29.884 565.812 29.83 566.208 29.722C566.616 29.614 566.958 29.476 567.234 29.308L567.594 30.478ZM575.177 27.022H571.109V31H569.669V22H571.109V25.762H575.177V22H576.617V31H575.177V27.022ZM579.246 22.666C579.702 22.39 580.23 22.186 580.83 22.054C581.442 21.922 582.078 21.856 582.738 21.856C583.362 21.856 583.86 21.94 584.232 22.108C584.616 22.276 584.904 22.498 585.096 22.774C585.3 23.038 585.432 23.332 585.492 23.656C585.564 23.98 585.6 24.304 585.6 24.628C585.6 25.348 585.582 26.05 585.546 26.734C585.51 27.418 585.492 28.066 585.492 28.678C585.492 29.122 585.51 29.542 585.546 29.938C585.582 30.334 585.648 30.7 585.744 31.036H584.682L584.304 29.776H584.214C584.106 29.944 583.968 30.112 583.8 30.28C583.644 30.436 583.452 30.58 583.224 30.712C582.996 30.832 582.732 30.934 582.432 31.018C582.132 31.102 581.79 31.144 581.406 31.144C581.022 31.144 580.662 31.084 580.326 30.964C580.002 30.844 579.72 30.676 579.48 30.46C579.24 30.232 579.048 29.962 578.904 29.65C578.772 29.338 578.706 28.984 578.706 28.588C578.706 28.06 578.814 27.622 579.03 27.274C579.246 26.914 579.546 26.632 579.93 26.428C580.326 26.212 580.794 26.062 581.334 25.978C581.886 25.882 582.492 25.834 583.152 25.834C583.32 25.834 583.482 25.834 583.638 25.834C583.806 25.834 583.974 25.846 584.142 25.87C584.178 25.51 584.196 25.186 584.196 24.898C584.196 24.238 584.064 23.776 583.8 23.512C583.536 23.248 583.056 23.116 582.36 23.116C582.156 23.116 581.934 23.134 581.694 23.17C581.466 23.194 581.226 23.236 580.974 23.296C580.734 23.344 580.5 23.41 580.272 23.494C580.056 23.566 579.864 23.65 579.696 23.746L579.246 22.666ZM581.802 29.884C582.138 29.884 582.438 29.842 582.702 29.758C582.966 29.662 583.194 29.548 583.386 29.416C583.578 29.272 583.734 29.116 583.854 28.948C583.986 28.78 584.082 28.618 584.142 28.462V26.968C583.974 26.956 583.8 26.95 583.62 26.95C583.452 26.938 583.284 26.932 583.116 26.932C582.744 26.932 582.378 26.956 582.018 27.004C581.67 27.04 581.358 27.118 581.082 27.238C580.818 27.346 580.602 27.502 580.434 27.706C580.278 27.898 580.2 28.144 580.2 28.444C580.2 28.864 580.35 29.212 580.65 29.488C580.95 29.752 581.334 29.884 581.802 29.884ZM589.256 22V24.448C589.256 24.772 589.274 25.066 589.31 25.33C589.346 25.582 589.418 25.804 589.526 25.996C589.634 26.176 589.79 26.32 589.994 26.428C590.198 26.524 590.468 26.572 590.804 26.572C591.344 26.572 591.788 26.512 592.136 26.392C592.484 26.272 592.748 26.14 592.928 25.996V22H594.368V31H592.928V27.22C592.736 27.34 592.448 27.472 592.064 27.616C591.692 27.76 591.176 27.832 590.516 27.832C590.072 27.832 589.682 27.784 589.346 27.688C589.01 27.592 588.728 27.424 588.5 27.184C588.272 26.944 588.098 26.626 587.978 26.23C587.87 25.834 587.816 25.336 587.816 24.736V22H589.256ZM597 22.666C597.456 22.39 597.984 22.186 598.584 22.054C599.196 21.922 599.832 21.856 600.492 21.856C601.116 21.856 601.614 21.94 601.986 22.108C602.37 22.276 602.658 22.498 602.85 22.774C603.054 23.038 603.186 23.332 603.246 23.656C603.318 23.98 603.354 24.304 603.354 24.628C603.354 25.348 603.336 26.05 603.3 26.734C603.264 27.418 603.246 28.066 603.246 28.678C603.246 29.122 603.264 29.542 603.3 29.938C603.336 30.334 603.402 30.7 603.498 31.036H602.436L602.058 29.776H601.968C601.86 29.944 601.722 30.112 601.554 30.28C601.398 30.436 601.206 30.58 600.978 30.712C600.75 30.832 600.486 30.934 600.186 31.018C599.886 31.102 599.544 31.144 599.16 31.144C598.776 31.144 598.416 31.084 598.08 30.964C597.756 30.844 597.474 30.676 597.234 30.46C596.994 30.232 596.802 29.962 596.658 29.65C596.526 29.338 596.46 28.984 596.46 28.588C596.46 28.06 596.568 27.622 596.784 27.274C597 26.914 597.3 26.632 597.684 26.428C598.08 26.212 598.548 26.062 599.088 25.978C599.64 25.882 600.246 25.834 600.906 25.834C601.074 25.834 601.236 25.834 601.392 25.834C601.56 25.834 601.728 25.846 601.896 25.87C601.932 25.51 601.95 25.186 601.95 24.898C601.95 24.238 601.818 23.776 601.554 23.512C601.29 23.248 600.81 23.116 600.114 23.116C599.91 23.116 599.688 23.134 599.448 23.17C599.22 23.194 598.98 23.236 598.728 23.296C598.488 23.344 598.254 23.41 598.026 23.494C597.81 23.566 597.618 23.65 597.45 23.746L597 22.666ZM599.556 29.884C599.892 29.884 600.192 29.842 600.456 29.758C600.72 29.662 600.948 29.548 601.14 29.416C601.332 29.272 601.488 29.116 601.608 28.948C601.74 28.78 601.836 28.618 601.896 28.462V26.968C601.728 26.956 601.554 26.95 601.374 26.95C601.206 26.938 601.038 26.932 600.87 26.932C600.498 26.932 600.132 26.956 599.772 27.004C599.424 27.04 599.112 27.118 598.836 27.238C598.572 27.346 598.356 27.502 598.188 27.706C598.032 27.898 597.954 28.144 597.954 28.444C597.954 28.864 598.104 29.212 598.404 29.488C598.704 29.752 599.088 29.884 599.556 29.884ZM610.916 23.26H608.306C608.27 23.764 608.234 24.31 608.198 24.898C608.162 25.474 608.108 26.056 608.036 26.644C607.964 27.22 607.868 27.778 607.748 28.318C607.628 28.846 607.472 29.314 607.28 29.722C607.1 30.13 606.872 30.46 606.596 30.712C606.332 30.952 606.014 31.072 605.642 31.072C605.414 31.072 605.216 31.06 605.048 31.036C604.88 31.012 604.729 30.97 604.597 30.91L604.814 29.704C604.958 29.752 605.114 29.776 605.281 29.776C605.522 29.776 605.738 29.674 605.93 29.47C606.122 29.266 606.29 28.882 606.434 28.318C606.578 27.742 606.698 26.95 606.794 25.942C606.89 24.934 606.956 23.62 606.992 22H612.356V31H610.916V23.26ZM614.982 22.666C615.438 22.39 615.966 22.186 616.566 22.054C617.178 21.922 617.814 21.856 618.474 21.856C619.098 21.856 619.596 21.94 619.968 22.108C620.352 22.276 620.64 22.498 620.832 22.774C621.036 23.038 621.168 23.332 621.228 23.656C621.3 23.98 621.336 24.304 621.336 24.628C621.336 25.348 621.318 26.05 621.282 26.734C621.246 27.418 621.228 28.066 621.228 28.678C621.228 29.122 621.246 29.542 621.282 29.938C621.318 30.334 621.384 30.7 621.48 31.036H620.418L620.04 29.776H619.95C619.842 29.944 619.704 30.112 619.536 30.28C619.38 30.436 619.188 30.58 618.96 30.712C618.732 30.832 618.468 30.934 618.168 31.018C617.868 31.102 617.526 31.144 617.142 31.144C616.758 31.144 616.398 31.084 616.062 30.964C615.738 30.844 615.456 30.676 615.216 30.46C614.976 30.232 614.784 29.962 614.64 29.65C614.508 29.338 614.442 28.984 614.442 28.588C614.442 28.06 614.55 27.622 614.766 27.274C614.982 26.914 615.282 26.632 615.666 26.428C616.062 26.212 616.53 26.062 617.07 25.978C617.622 25.882 618.228 25.834 618.888 25.834C619.056 25.834 619.218 25.834 619.374 25.834C619.542 25.834 619.71 25.846 619.878 25.87C619.914 25.51 619.932 25.186 619.932 24.898C619.932 24.238 619.8 23.776 619.536 23.512C619.272 23.248 618.792 23.116 618.096 23.116C617.892 23.116 617.67 23.134 617.43 23.17C617.202 23.194 616.962 23.236 616.71 23.296C616.47 23.344 616.236 23.41 616.008 23.494C615.792 23.566 615.6 23.65 615.432 23.746L614.982 22.666ZM617.538 29.884C617.874 29.884 618.174 29.842 618.438 29.758C618.702 29.662 618.93 29.548 619.122 29.416C619.314 29.272 619.47 29.116 619.59 28.948C619.722 28.78 619.818 28.618 619.878 28.462V26.968C619.71 26.956 619.536 26.95 619.356 26.95C619.188 26.938 619.02 26.932 618.852 26.932C618.48 26.932 618.114 26.956 617.754 27.004C617.406 27.04 617.094 27.118 616.818 27.238C616.554 27.346 616.338 27.502 616.17 27.706C616.014 27.898 615.936 28.144 615.936 28.444C615.936 28.864 616.086 29.212 616.386 29.488C616.686 29.752 617.07 29.884 617.538 29.884ZM636.811 33.286H635.839L635.569 31H628.801L628.531 33.286H627.559V29.74H628.621C628.717 29.608 628.843 29.374 628.999 29.038C629.155 28.69 629.305 28.21 629.449 27.598C629.605 26.974 629.737 26.206 629.845 25.294C629.965 24.37 630.037 23.272 630.061 22H635.497V29.74H636.811V33.286ZM634.057 29.74V23.26H631.357C631.333 23.764 631.291 24.316 631.231 24.916C631.171 25.504 631.087 26.098 630.979 26.698C630.883 27.286 630.757 27.844 630.601 28.372C630.445 28.9 630.265 29.356 630.061 29.74H634.057ZM645.163 30.28C644.803 30.568 644.347 30.796 643.795 30.964C643.255 31.132 642.679 31.216 642.067 31.216C641.383 31.216 640.789 31.108 640.285 30.892C639.781 30.664 639.367 30.346 639.043 29.938C638.719 29.518 638.479 29.02 638.323 28.444C638.167 27.868 638.089 27.22 638.089 26.5C638.089 24.964 638.431 23.794 639.115 22.99C639.799 22.186 640.777 21.784 642.049 21.784C642.457 21.784 642.865 21.832 643.273 21.928C643.681 22.012 644.047 22.18 644.371 22.432C644.695 22.684 644.959 23.044 645.163 23.512C645.367 23.968 645.469 24.574 645.469 25.33C645.469 25.726 645.433 26.164 645.361 26.644H639.583C639.583 27.172 639.637 27.64 639.745 28.048C639.853 28.456 640.021 28.804 640.249 29.092C640.477 29.368 640.771 29.584 641.131 29.74C641.503 29.884 641.953 29.956 642.481 29.956C642.889 29.956 643.297 29.884 643.705 29.74C644.113 29.596 644.419 29.428 644.623 29.236L645.163 30.28ZM642.067 23.044C641.359 23.044 640.789 23.23 640.357 23.602C639.937 23.974 639.685 24.61 639.601 25.51H644.065C644.065 24.598 643.891 23.962 643.543 23.602C643.195 23.23 642.703 23.044 642.067 23.044ZM647.734 31V22H649.174V29.74H652.252V22H653.692V29.74H656.77V22H658.21V31H647.734ZM667.558 30.28C667.198 30.568 666.742 30.796 666.19 30.964C665.65 31.132 665.074 31.216 664.462 31.216C663.778 31.216 663.184 31.108 662.68 30.892C662.176 30.664 661.762 30.346 661.438 29.938C661.114 29.518 660.874 29.02 660.718 28.444C660.562 27.868 660.484 27.22 660.484 26.5C660.484 24.964 660.826 23.794 661.51 22.99C662.194 22.186 663.172 21.784 664.444 21.784C664.852 21.784 665.26 21.832 665.668 21.928C666.076 22.012 666.442 22.18 666.766 22.432C667.09 22.684 667.354 23.044 667.558 23.512C667.762 23.968 667.864 24.574 667.864 25.33C667.864 25.726 667.828 26.164 667.756 26.644H661.978C661.978 27.172 662.032 27.64 662.14 28.048C662.248 28.456 662.416 28.804 662.644 29.092C662.872 29.368 663.166 29.584 663.526 29.74C663.898 29.884 664.348 29.956 664.876 29.956C665.284 29.956 665.692 29.884 666.1 29.74C666.508 29.596 666.814 29.428 667.018 29.236L667.558 30.28ZM664.462 23.044C663.754 23.044 663.184 23.23 662.752 23.602C662.332 23.974 662.08 24.61 661.996 25.51H666.46C666.46 24.598 666.286 23.962 665.938 23.602C665.59 23.23 665.098 23.044 664.462 23.044ZM670.128 22.018C670.548 21.994 670.986 21.964 671.442 21.928C671.91 21.892 672.486 21.874 673.17 21.874C674.358 21.874 675.21 22.06 675.726 22.432C676.242 22.792 676.5 23.344 676.5 24.088C676.5 24.508 676.374 24.922 676.122 25.33C675.882 25.726 675.48 26.02 674.916 26.212V26.284C675.624 26.416 676.122 26.662 676.41 27.022C676.698 27.382 676.842 27.862 676.842 28.462C676.842 29.398 676.506 30.076 675.834 30.496C675.162 30.916 674.154 31.126 672.81 31.126C672.306 31.126 671.838 31.108 671.406 31.072C670.974 31.048 670.548 31.018 670.128 30.982V22.018ZM671.568 29.794C671.796 29.818 672.018 29.836 672.234 29.848C672.462 29.86 672.726 29.866 673.026 29.866C673.83 29.866 674.424 29.752 674.808 29.524C675.204 29.296 675.402 28.906 675.402 28.354C675.402 27.922 675.234 27.574 674.898 27.31C674.574 27.034 673.992 26.896 673.152 26.896H671.568V29.794ZM673.332 25.798C673.548 25.798 673.758 25.762 673.962 25.69C674.166 25.618 674.346 25.522 674.502 25.402C674.67 25.27 674.802 25.12 674.898 24.952C675.006 24.784 675.06 24.604 675.06 24.412C675.06 23.932 674.916 23.602 674.628 23.422C674.34 23.23 673.836 23.134 673.116 23.134C672.732 23.134 672.426 23.14 672.198 23.152C671.982 23.164 671.772 23.176 671.568 23.188V25.798H673.332ZM680.551 29.74C680.995 29.812 681.421 29.848 681.829 29.848C682.585 29.848 683.113 29.704 683.413 29.416C683.713 29.116 683.863 28.696 683.863 28.156C683.863 27.676 683.713 27.28 683.413 26.968C683.125 26.656 682.615 26.5 681.883 26.5C681.679 26.5 681.457 26.506 681.217 26.518C680.977 26.53 680.755 26.566 680.551 26.626V29.74ZM680.551 25.438C680.839 25.39 681.115 25.36 681.379 25.348C681.643 25.324 681.895 25.312 682.135 25.312C682.747 25.312 683.257 25.384 683.665 25.528C684.085 25.66 684.421 25.846 684.673 26.086C684.925 26.326 685.099 26.614 685.195 26.95C685.303 27.274 685.357 27.622 685.357 27.994C685.357 29.086 685.051 29.878 684.439 30.37C683.839 30.862 682.861 31.108 681.505 31.108C680.737 31.108 679.939 31.072 679.111 31V22H680.551V25.438ZM686.779 22H688.219V31H686.779V22ZM697.563 30.28C697.203 30.568 696.747 30.796 696.195 30.964C695.655 31.132 695.079 31.216 694.467 31.216C693.783 31.216 693.189 31.108 692.685 30.892C692.181 30.664 691.767 30.346 691.443 29.938C691.119 29.518 690.879 29.02 690.723 28.444C690.567 27.868 690.489 27.22 690.489 26.5C690.489 24.964 690.831 23.794 691.515 22.99C692.199 22.186 693.177 21.784 694.449 21.784C694.857 21.784 695.265 21.832 695.673 21.928C696.081 22.012 696.447 22.18 696.771 22.432C697.095 22.684 697.359 23.044 697.563 23.512C697.767 23.968 697.869 24.574 697.869 25.33C697.869 25.726 697.833 26.164 697.761 26.644H691.983C691.983 27.172 692.037 27.64 692.145 28.048C692.253 28.456 692.421 28.804 692.649 29.092C692.877 29.368 693.171 29.584 693.531 29.74C693.903 29.884 694.353 29.956 694.881 29.956C695.289 29.956 695.697 29.884 696.105 29.74C696.513 29.596 696.819 29.428 697.023 29.236L697.563 30.28ZM694.467 23.044C693.759 23.044 693.189 23.23 692.757 23.602C692.337 23.974 692.085 24.61 692.001 25.51H696.465C696.465 24.598 696.291 23.962 695.943 23.602C695.595 23.23 695.103 23.044 694.467 23.044Z" fill="#333333"/>
<path d="M804.675 27.7123L809.775 22.4123C810.075 22.1123 810.075 21.5123 809.775 21.2123C809.475 20.9123 808.875 20.9123 808.575 21.2123L804.075 25.9123L799.575 21.2123C799.275 20.9123 798.675 20.9123 798.375 21.2123C798.175 21.3123 798.075 21.6123 798.075 21.8123C798.075 22.0123 798.175 22.2123 798.375 22.4123L803.475 27.7123C803.775 28.1123 804.375 28.1123 804.675 27.7123Z" fill="black"/>
<rect x="901" y="1" width="46" height="46" rx="3" stroke="black" stroke-width="2"/>
<g clip-path="url(#clip0_33516_1091)">
<path d="M920 17H916V23H920V17Z" fill="black"/>
<path d="M932 17H928V23H932V17Z" fill="black"/>
<path d="M926 17H922V23H926V17Z" fill="black"/>
<path d="M920 25H916V31H920V25Z" fill="black"/>
<path d="M932 25H928V31H932V25Z" fill="black"/>
<path d="M926 25H922V31H926V25Z" fill="black"/>
</g>
<rect x="957" y="1" width="46" height="46" rx="3" stroke="#E5E5E5" stroke-width="2"/>
<g clip-path="url(#clip1_33516_1091)">
<path d="M988 29H972V31H988V29Z" fill="black"/>
<path d="M986 19V25H974V19H986ZM988 17H972V27H988V17Z" fill="black"/>
</g>
<rect x="1013" y="1" width="46" height="46" rx="3" stroke="#E5E5E5" stroke-width="2"/>
<g clip-path="url(#clip2_33516_1091)">
<path d="M1030 17H1028V19H1030V17Z" fill="black"/>
<path d="M1044 17H1032V19H1044V17Z" fill="black"/>
<path d="M1030 21H1028V23H1030V21Z" fill="black"/>
<path d="M1044 21H1032V23H1044V21Z" fill="black"/>
<path d="M1030 25H1028V27H1030V25Z" fill="black"/>
<path d="M1044 25H1032V27H1044V25Z" fill="black"/>
<path d="M1030 29H1028V31H1030V29Z" fill="black"/>
<path d="M1044 29H1032V31H1044V29Z" fill="black"/>
</g>
<defs>
<clipPath id="clip0_33516_1091">
<rect width="16" height="14" fill="white" transform="translate(916 17)"/>
</clipPath>
<clipPath id="clip1_33516_1091">
<rect width="16" height="14" fill="white" transform="translate(972 17)"/>
</clipPath>
<clipPath id="clip2_33516_1091">
<rect width="16" height="14" fill="white" transform="translate(1028 17)"/>
</clipPath>
</defs>
</svg>
